{
  "asset": {
    "version": "2.0",
    "generator": "THREE.GLTFExporter"
  },
  "scenes": [
    {
      "nodes": [
        0
      ]
    }
  ],
  "scene": 0,
  "nodes": [
    {
      "children": [
        5
      ],
      "matrix": [
        0.01,
        0,
        0,
        0,
        0,
        0.01,
        0,
        0,
        0,
        0,
        0.01,
        0,
        0,
        0,
        0,
        1
      ]
    },
    {
      "matrix": [
        0.8204117183041938,
        0,
        0.5717732176913853,
        0,
        0,
        1,
        0,
        0,
        -0.5717732176913853,
        0,
        0.8204117183041938,
        0,
        0,
        0,
        0,
        1
      ],
      "name": "Star",
      "mesh": 0
    },
    {
      "matrix": [
        0.5883484054145521,
        0.39223227027636803,
        -0.7071067811865475,
        0,
        -0.554700196225229,
        0.8320502943378437,
        0,
        0,
        0.588348405414552,
        0.392232270276368,
        0.7071067811865476,
        0,
        0,
        0,
        0,
        1
      ],
      "name": "Directional Light",
      "extensions": {
        "KHR_lights_punctual": {
          "light": 0
        }
      }
    },
    {
      "matrix": [
        1,
        0,
        0,
        0,
        0,
        1,
        -6.62078583451453e-17,
        0,
        0,
        6.62078583451453e-17,
        1,
        0,
        -2.404233373648708,
        28.402379692239144,
        249.9339192052264,
        1
      ],
      "camera": 0
    },
    {
      "matrix": [
        1,
        0,
        0,
        0,
        0,
        1,
        0,
        0,
        0,
        0,
        1,
        0,
        0,
        1,
        0,
        1
      ],
      "name": "Default Ambient Light"
    },
    {
      "name": "Scene 1",
      "children": [
        1,
        2,
        3,
        4
      ]
    }
  ],
  "bufferViews": [
    {
      "buffer": 0,
      "byteOffset": 0,
      "byteLength": 37008,
      "target": 34962,
      "byteStride": 12
    },
    {
      "buffer": 0,
      "byteOffset": 37008,
      "byteLength": 37008,
      "target": 34962,
      "byteStride": 12
    },
    {
      "buffer": 0,
      "byteOffset": 74016,
      "byteLength": 24672,
      "target": 34962,
      "byteStride": 8
    },
    {
      "buffer": 0,
      "byteOffset": 98688,
      "byteLength": 60432,
      "target": 34963
    }
  ],
  "buffers": [
    {
      "byteLength": 159120,
      "uri": "data:application/octet-stream;base64,"
    }
  ],
  "accessors": [
    {
      "bufferView": 0,
      "componentType": 5126,
      "count": 3084,
      "max": [
        36.67454528808594,
        36.55180358886719,
        10
      ],
      "min": [
        -36.67454528808594,
        -36.34504318237305,
        0
      ],
      "type": "VEC3"
    },
    {
      "bufferView": 1,
      "componentType": 5126,
      "count": 3084,
      "max": [
        0.9994924664497375,
        0.9995737075805664,
        1
      ],
      "min": [
        -0.9994924664497375,
        -0.9996928572654724,
        -1
      ],
      "type": "VEC3"
    },
    {
      "bufferView": 2,
      "componentType": 5126,
      "count": 3084,
      "max": [
        1,
        1
      ],
      "min": [
        0,
        0
      ],
      "type": "VEC2"
    },
    {
      "bufferView": 3,
      "componentType": 5125,
      "count": 15108,
      "max": [
        3083
      ],
      "min": [
        0
      ],
      "type": "SCALAR"
    }
  ],
  "meshes": [
    {
      "primitives": [
        {
          "mode": 4,
          "attributes": {
            "POSITION": 0,
            "NORMAL": 1,
            "TEXCOORD_0": 2
          },
          "extras": {
            "shape": {
              "points": [
                -9.184850993605149e-15,
                50,
                -9.184850993605149e-15,
                50,
                -9.184850993605149e-15,
                50,
                15,
                -5.3033008588991075,
                5.303300858899106,
                -5.3033008588991075,
                5.303300858899106,
                -5.3033008588991075,
                5.303300858899106,
                15,
                -50,
                -6.123233995736766e-15,
                -50,
                -6.123233995736766e-15,
                -50,
                -6.123233995736766e-15,
                15,
                -5.303300858899106,
                -5.303300858899107,
                -5.303300858899106,
                -5.303300858899107,
                -5.303300858899106,
                -5.303300858899107,
                15,
                3.061616997868383e-15,
                -50,
                3.061616997868383e-15,
                -50,
                3.061616997868383e-15,
                -50,
                15,
                5.303300858899107,
                -5.303300858899106,
                5.303300858899107,
                -5.303300858899106,
                5.303300858899107,
                -5.303300858899106,
                15,
                50,
                0,
                50,
                0,
                50,
                0,
                15,
                5.303300858899107,
                5.303300858899106,
                5.303300858899107,
                5.303300858899106,
                5.303300858899107,
                5.303300858899106,
                15
              ],
              "shapeHoles": [],
              "isClosed": true,
              "roundness": 15
            },
            "parameters": {
              "width": 100,
              "depth": 10,
              "innerRadiusPercent": 15,
              "spikes": 4,
              "cornerRadius": 15,
              "angle": 360,
              "extrudeBevelSize": 5,
              "extrudeBevelSegments": 5,
              "height": 100,
              "type": "StarGeometry"
            },
            "type": "StarGeometry"
          },
          "indices": 3
        }
      ]
    }
  ],
  "extensions": {
    "KHR_lights_punctual": {
      "lights": [
        {
          "name": "Directional Light",
          "color": [
            1,
            1,
            1
          ],
          "intensity": 0.7,
          "type": "directional"
        }
      ]
    }
  },
  "cameras": [
    {
      "type": "perspective",
      "perspective": {
        "aspectRatio": 2.7564102564102564,
        "yfov": 0.7853981633974483,
        "zfar": 100000,
        "znear": 70
      }
    }
  ],
  "extensionsUsed": [
    "KHR_lights_punctual"
  ]
}