{
  "asset": {
    "version": "2.0",
    "generator": "THREE.GLTFExporter"
  },
  "scenes": [
    {
      "nodes": [
        0
      ]
    }
  ],
  "scene": 0,
  "nodes": [
    {
      "children": [
        8
      ],
      "matrix": [
        0.01,
        0,
        0,
        0,
        0,
        0.01,
        0,
        0,
        0,
        0,
        0.01,
        0,
        0,
        0,
        0,
        1
      ]
    },
    {
      "matrix": [
        0.9652993003830189,
        0,
        -0.26114605239224703,
        0,
        -0.08151235353057798,
        0.9500383488000671,
        -0.3013019615454705,
        0,
        0.2480987644103862,
        0.3121332020295856,
        0.9170713534337432,
        0,
        447.1498994302753,
        255.46887785141266,
        1107.0172073485026,
        1
      ],
      "name": "Camera 2",
      "camera": 0
    },
    {
      "matrix": [
        3.749399456654644e-33,
        -6.123233995736766e-17,
        -1,
        0,
        1,
        6.123233995736766e-17,
        0,
        0,
        6.123233995736766e-17,
        -1,
        6.123233995736766e-17,
        0,
        0,
        0,
        0,
        1
      ],
      "name": "Directional Light",
      "extensions": {
        "KHR_lights_punctual": {
          "light": 0
        }
      }
    },
    {
      "matrix": [
        1,
        0,
        0,
        0,
        0,
        1,
        0,
        0,
        0,
        0,
        1,
        0,
        125.60189376427911,
        -134.50718321548968,
        1271.661436346501,
        1
      ],
      "name": "Camera",
      "camera": 1
    },
    {
      "matrix": [
        1,
        0,
        0,
        0,
        0,
        1,
        0,
        0,
        0,
        0,
        1,
        0,
        -54.828473465098796,
        419.98947067891186,
        493.1374374260083,
        1
      ],
      "name": "Point Light",
      "extensions": {
        "KHR_lights_punctual": {
          "light": 1
        }
      }
    },
    {
      "matrix": [
        1,
        -2.4492935982947064e-16,
        0,
        0,
        2.4492935982947064e-16,
        1,
        0,
        0,
        0,
        0,
        1,
        0,
        3.827211493658183,
        -47.99592944315566,
        17.394748008286626,
        1
      ],
      "name": "ckoud3 4",
      "mesh": 0
    },
    {
      "matrix": [
        1,
        0,
        0,
        0,
        0,
        1,
        -6.123233995736766e-17,
        0,
        0,
        6.123233995736766e-17,
        1,
        0,
        0,
        4.3889210965596854e-15,
        1000,
        1
      ],
      "camera": 2
    },
    {
      "matrix": [
        1,
        0,
        0,
        0,
        0,
        1,
        0,
        0,
        0,
        0,
        1,
        0,
        0,
        1,
        0,
        1
      ],
      "name": "Default Ambient Light"
    },
    {
      "name": "Scene 1",
      "children": [
        1,
        2,
        3,
        4,
        5,
        6,
        7
      ]
    }
  ],
  "cameras": [
    {
      "type": "orthographic",
      "orthographic": {
        "xmag": 20.05278688272775,
        "ymag": 7.309940334575757,
        "zfar": 100000,
        "znear": 0
      },
      "name": "Camera"
    },
    {
      "type": "orthographic",
      "orthographic": {
        "xmag": 14.74064102192454,
        "ymag": 5.3734778608992375,
        "zfar": 100000,
        "znear": 0
      },
      "name": "Camera"
    },
    {
      "type": "orthographic",
      "orthographic": {
        "xmag": 76.09585494185006,
        "ymag": 27.73959363287209,
        "zfar": 100000,
        "znear": 0
      }
    }
  ],
  "extensions": {
    "KHR_lights_punctual": {
      "lights": [
        {
          "name": "Directional Light",
          "color": [
            1,
            0.7457281553398059,
            0.34466019417475724
          ],
          "intensity": 0.615,
          "type": "directional"
        },
        {
          "name": "Point Light",
          "color": [
            0.6796116504854368,
            1,
            0.938485436893204
          ],
          "intensity": 0.359,
          "type": "point",
          "range": 897
        }
      ]
    }
  },
  "bufferViews": [
    {
      "buffer": 0,
      "byteOffset": 0,
      "byteLength": 1161528,
      "target": 34962,
      "byteStride": 12
    },
    {
      "buffer": 0,
      "byteOffset": 1161528,
      "byteLength": 1161528,
      "target": 34962,
      "byteStride": 12
    },
    {
      "buffer": 0,
      "byteOffset": 2323056,
      "byteLength": 586680,
      "target": 34963
    }
  ],
  "buffers": [
    {
      "byteLength": 2909736,
      "uri": "data:application/octet-stream;base64,"
    }
  ],
  "accessors": [
    {
      "bufferView": 0,
      "componentType": 5126,
      "count": 96794,
      "max": [
        487.8093566894531,
        247.85897827148438,
        271.0664978027344
      ],
      "min": [
        -490.1167297363281,
        -245.79788208007812,
        -269.6983947753906
      ],
      "type": "VEC3"
    },
    {
      "bufferView": 1,
      "componentType": 5126,
      "count": 96794,
      "max": [
        0.9987431168556213,
        0.9999842643737793,
        0.9999730587005615
      ],
      "min": [
        -0.9990864396095276,
        -0.999998152256012,
        -0.9997254610061646
      ],
      "type": "VEC3"
    },
    {
      "bufferView": 2,
      "componentType": 5125,
      "count": 146670,
      "max": [
        96793
      ],
      "min": [
        0
      ],
      "type": "SCALAR"
    }
  ],
  "meshes": [
    {
      "primitives": [
        {
          "mode": 4,
          "attributes": {
            "POSITION": 0,
            "NORMAL": 1
          },
          "extras": {
            "type": "SubdivGeometry",
            "parameters": {
              "width": 977.9260476252532,
              "height": 493.6568603515625,
              "depth": 540.7648907881832
            }
          },
          "indices": 2
        }
      ]
    }
  ],
  "extensionsUsed": [
    "KHR_lights_punctual"
  ]
}